<svg xmlns="http://www.w3.org/2000/svg" width="306.431" height="191.343" viewBox="0 0 306.431 191.343">
  <g id="state-3" transform="translate(-413.245 -117.883)">
    <g id="Group_10" data-name="Group 10">
      <path id="Path_504" data-name="Path 504" d="M661,181.621l-1.9,1.9-.632,2.529H657.2l-3.794,5.06,2.529,3.161.633,2.53-1.265,1.9,1.9,1.9v1.265H653.41l-1.265,1.264-3.161-.632-3.162,4.426.632,4.427-2.529,1.264-1.265,2.53.633.632-3.8,3.795-1.264-2.53-3.162.632L631.91,214.5v-2.53l-3.161.632-5.693-1.9-3.794,5.059-2.53-6.956-3.794-3.794-.632.632-2.53-1.265-1.264-2.529h-6.324l-.632-.633,1.9-.632v-1.264l-3.161-3.162-7.589,1.9-.632-.632V194.9l-2.529-2.53v-1.264l1.264-2.53-.632-.632,3.162-4.427-.633-.632,1.9-4.427-1.264-5.058,1.264-1.265-.632-1.9,1.265-1.9v-3.8l-1.265-2.529-5.06-3.8,3.794-3.162h1.265l1.265-1.264-.633-3.162,5.692-3.794,3.794.632.632,1.265,2.53-.632,1.9,1.9v1.265l1.9.632v-1.265l2.53-1.9h3.794l3.161-1.265v-1.264h7.589l3.161-3.794,5.059,3.794,2.53,4.426-.633,1.9,3.795,2.53v6.956h1.264l7.589,7.588-3.795,6.956h1.265l3.162,3.162L661,182.252Z" fill="#fcd275" stroke="#fff" stroke-linecap="round" stroke-linejoin="round" stroke-width="1" fill-rule="evenodd"/>
      <path id="Path_505" data-name="Path 505" d="M639.5,218.93l-3.794,3.8v1.264h-2.53l.632,3.794-1.9,3.162.632.632-2.529,1.9,1.9,4.426-.632,1.9h1.264l-.632,1.265-3.162.632-1.264,5.059h-2.53l-1.264-1.265h-2.53l-1.265,1.265-1.9,5.059,1.265,2.53-1.9.632L616.1,253.71l-1.9,1.9h-1.265l-1.265-2.53-2.529,1.265-3.162-.633-3.794,1.265V253.71l-.632.633-1.9-1.9-1.9,1.264-2.529-3.794-1.9.632-.633-1.9h-1.264l-.633-1.264-1.264,1.264v-1.264l-1.9-1.9-1.264,1.265-1.265-2.529,1.265-2.53-1.265-1.265,3.794-3.794v-7.588l-3.794-1.264-2.529-2.53,1.9-.632.632-4.427h1.265l-.633.633,1.265,1.264v-1.264h1.265v-1.265l-1.9-.632,1.264-1.265,2.53-1.265,1.265,1.265,3.794-3.794-.633-.632,1.265-3.795,2.53-1.264v-5.06l2.529-2.529,1.265,1.265h6.323l1.265,2.529,2.529,1.265.633-.633,3.794,3.795,2.529,6.323v-1.265l1.265-1.265.632.633,1.265-2.53,6.956,1.9,1.9-.632,1.265,1.265-.633,1.9h1.265l1.9,2.529,3.162-.632V218.3Z" fill="#5dd5db" stroke="#fff" stroke-linecap="round" stroke-linejoin="round" stroke-width="1" fill-rule="evenodd"/>
      <path id="Path_506" data-name="Path 506" d="M578.79,211.974h1.265l-.632.633,8.853,7.588-1.9,1.9-.632-1.9-1.265,1.265v2.529l-1.9,1.9,1.9,1.9,3.161.633,1.265,1.264.632,6.956-4.426,4.427h1.265l-1.265,3.794,1.265.632-1.265,1.265-8.853-5.059-1.9.632v-1.264l-2.53-1.265h-3.162L566.143,236l.632-1.9-1.9-.633,1.9-1.9v-1.264l-1.9-1.9,1.9-.632v-2.53l1.9-.632,1.9-1.9v-1.266h1.264V216.4l-1.264-1.265,1.9-1.9-.633-1.9,1.265-2.529Z" fill="#9cd1ff" stroke="#fff" stroke-linecap="round" stroke-linejoin="round" stroke-width="1" fill-rule="evenodd"/>
      <path id="Path_507" data-name="Path 507" d="M598.394,204.386v3.794l-2.53,1.265-1.264,3.794.632.632-3.795,3.795-1.265-1.265-1.265,1.265-3.161.632-5.692-5.691-.632.632.632-.632-1.264-1.265,7.588-6.323,3.162-.633,1.264,1.265H594.6Z" fill="#71b481" stroke="#fff" stroke-linecap="round" stroke-linejoin="round" stroke-width="1" fill-rule="evenodd"/>
      <path id="Path_508" data-name="Path 508" d="M601.555,200.592h-1.264l-2.53,3.794-3.794,1.265-5.059-1.265-2.53,1.265-.632-.633v1.265l-4.426,3.161-.633-.632-1.9,1.9v1.265l-5.059-3.162-3.161,6.956,1.9,1.9-.632,3.162-1.265,1.265.632.632-1.9.632v1.265l-3.794-1.265V218.3l-1.9-.632,1.265-3.162-5.06-3.794,1.265-5.059,1.9-.633,1.264-2.529,5.059-1.265v-1.265l-1.9-1.9,1.9-.632L573.1,193l14.544.633,2.53-1.265,2.529,5.059,5.691-1.264,3.795,1.264,1.264,2.53Z" fill="#e66666" stroke="#fff" stroke-linecap="round" stroke-linejoin="round" stroke-width="1" fill-rule="evenodd"/>
      <path id="Path_509" data-name="Path 509" d="M588.908,158.223l2.53,1.265,3.794,5.059v3.794l-1.265,1.265.632,3.161-1.264.633,1.264,5.059-1.9,4.426.633.632-3.162,4.427.632.632L589.541,193H573.1l-4.427,4.426-3.161,1.265-3.162-.632-8.22,1.9h-1.265l-5.059-3.794h-2.529l-1.9-1.9.632-.633h-1.265v-1.264l-2.529,1.264-.633-.632,1.265-2.53h-1.265l-.632-1.9-1.9-.632v-5.058l3.162-6.956-1.265-1.265,3.161-4.427-3.161-1.264-1.9-1.9v-1.265l4.426-.632,4.427-5.059,5.691-1.265.633-1.264h5.058l.633.632-3.794,3.794-.633,1.9,1.265,1.265,5.059,1.265-.632,5.691h7.588l3.794,1.265,1.265-2.53h3.794l2.53-3.794.632.632,1.9-1.9h1.265l2.529-2.529v-1.265l2.53-1.265v-1.264Z" fill="#cff5c8" stroke="#fff" stroke-linecap="round" stroke-linejoin="round" stroke-width="1" fill-rule="evenodd"/>
      <path id="Path_510" data-name="Path 510" d="M630.011,143.046v1.265l-2.529,1.9h-6.956v1.265l-3.161,1.264h-3.794l-3.162,3.162h-1.265l-1.9-3.794-1.9.632-3.162-1.9h-2.529l-1.265,1.9h-2.529l-1.265,1.9.632,3.162-1.264,1.265-6.324,3.161v1.9l-1.9.633-3.794,5.059h-1.264l-1.9,1.9-.633-.633-2.529,3.795h-3.794l-1.265,2.529-3.794-1.264h-7.589l.633-5.692-5.059-1.265-1.265-1.264.632-1.9,3.795-3.795h-4.429l-1.264-2.529,3.794-2.53V150l5.059-3.794.632-3.162v-1.265l-1.9-1.9,1.265-5.059-1.9-1.9-.633-4.426-1.9-2.53.633-.632,1.264,1.264,3.162-2.529,2.529,2.529h1.265l2.529,3.8.633-.633,1.264,1.265h3.8l4.426-1.9.632,2.529,3.162.633,3.794-3.794v-2.53l5.059-1.265,6.323.633,3.794,2.529,3.795,1.265,1.9-.632,1.264,6.956L612.3,132.3V131.03l1.9-1.9-.633-2.529,1.265-2.53,2.529-1.9-.632-2.529,2.53-1.265,1.9,1.9v2.53l1.265,1.264V130.4l1.9,6.956,3.161,3.161v1.265Z" fill="#ffd8ad" stroke="#fff" stroke-linecap="round" stroke-linejoin="round" stroke-width="1" fill-rule="evenodd"/>
      <path id="Path_511" data-name="Path 511" d="M556.658,125.34l1.9,3.794v2.53l2.53,3.162-1.265,3.794v1.264l1.9,1.9-.632,4.426L556.026,150l.632,1.9-3.162,3.162h-1.264v2.53l-1.265,1.264-5.691,1.265-.633,2.529-3.161,2.53h-4.427l1.265,3.794,3.794,1.265-3.162,4.426,1.265,1.265-3.162,6.956v5.059h1.265l.632,1.9,1.9.633L539.585,193l.632.632,2.53-1.264v1.264l.632-.632v1.265l1.9,1.9h2.53l5.058,3.794,8.854-1.9h5.691l1.9,1.9v1.264l-5.059,1.265-1.264,1.265.632.632-2.53,1.265-.632,4.426-5.059,1.9-6.323-5.691-5.692,3.162-.632-1.9-.632.632-2.53-1.265h-2.529l-4.427,3.162-5.691-1.9-2.53,3.794-5.059-3.161h-1.264l-2.53,2.529-.632-1.9h-1.265l1.265-2.53-5.059-3.794-7.589,1.9-1.9-1.9,1.265-2.529-1.265-1.265.632-1.9-4.426-.633.632-1.9-2.529-1.265,1.9-1.9h2.529l7.589,3.794,3.161-1.265.633-1.9,1.9,1.265.632-.633-1.264-5.059-1.9-.632v-2.53l-1.9-1.9-.632-5.059.632-1.9,4.427-3.161-.632-.633,1.9-1.9v-1.265l3.161-.632-.632-5.059,1.265-1.265,1.9-6.956,1.9-1.9h1.265l1.9.632,1.264,1.9h2.53l1.9-3.162,3.162-.632-.633-1.9,2.53-5.691-1.265-3.794,3.795-3.794.632.632.632-1.9,2.53-1.265,1.264-3.161-.632-1.265,1.265-1.9-.633-.633,4.427-3.793h3.162l3.794,2.53Z" fill="#a8bdf8" stroke="#fff" stroke-linecap="round" stroke-linejoin="round" stroke-width="1" fill-rule="evenodd"/>
      <path id="Path_512" data-name="Path 512" d="M676.807,266.358l3.162,1.9,3.162-3.162,6.323,3.794h2.529l.633,3.162,3.161,1.9.633-.632,1.9,1.9-2.53,3.794.633.632-1.265,1.265-2.53-1.265-.632,3.162-1.9,1.9h-1.265l1.265,1.264,2.529-1.264,2.53,1.264-1.9,4.427.632-.633,1.265,3.795,1.9.632-1.9,7.588-1.9,1.9-3.161-.633-1.265,1.265-3.161.632V306.2l-2.53,2.529v-1.264l-1.9-.633-.632-1.9-5.06-2.529v-1.265l-.632.633-1.9-1.9-3.162-.633-3.794-2.529-13.912-1.265-2.529-3.794v-2.53l-3.795-3.794.633-1.9-1.265-1.265-3.162-.632-1.9-1.9-2.529,2.529-1.9-1.9h-1.265l.632-1.9-1.264-1.264-3.162.632-1.9-1.9-7.588-2.53-.633,1.265H618l-3.162,3.794-1.9.632v1.265l-1.9.632h-6.956l-2.53-1.264-5.691.632-1.265-2.53,1.9-.632-3.161-1.9H594.6v-2.529h2.53l-1.265-1.265.633-.632-2.53-1.265v-5.059l-5.059-2.529-2.529-5.059,1.9-1.9h1.264v-1.265l2.53-1.265.632-1.9,1.9-.632,1.9.632v1.265l.633-.633-1.265,1.265.632.632,3.162-.632,1.9,1.9.632-.632v1.264l3.795-1.264,3.161.632,2.53-1.265,1.264,2.53H614.2l1.9-1.9,1.265,1.264,1.9-.632L618,251.813l2.53-6.323h2.53l4.426,1.9,1.265-5.059,5.059-1.9-.632.632,2.53,2.53,8.22,1.9,2.53,3.794h1.264l.633-1.264,2.529,2.529v3.794l1.9.633,5.059,5.059H659.1V261.3l1.9-.632,2.529,3.162,3.162-.633,1.9,1.9v1.265l1.9.632,1.265-1.264Z" fill="#ec9edf" stroke="#fff" stroke-linecap="round" stroke-linejoin="round" stroke-width="1" fill-rule="evenodd"/>
      <path id="Path_513" data-name="Path 513" d="M716.014,193.636l2.53,1.264.632,5.692-3.794,7.588v3.794l-1.265,2.53h-1.264l-3.162,4.426h-5.06l-6.323,5.692h-1.265l-2.529,5.059-9.485,9.485-.632-.633-1.265,1.265v2.529l-3.794,5.06v3.794l-1.265,2.529v2.53l2.53,2.529v2.53l-3.8,3.794v1.265l-5.691-.633-.632,1.9-4.427-4.426H662.9l-1.265-2.53-1.9.633-6.956-6.324h-1.265l-.632-4.426-2.53-2.53-1.264,1.265-3.795-3.794-3.794-1.265-.632.633-5.059-2.53v-1.265l-2.53-1.264.633-1.9-1.9-4.427,3.794-5.059-.632-3.794,1.9-.632,3.794-5.059,5.059,1.264,1.9,1.9.633-.632,6.956,6.956-1.9,4.426,4.426,1.265h8.853l1.9,3.162,3.162-3.162,1.265-5.059,5.691-5.691,8.221-1.9,3.161-2.53V216.4l3.162-3.162.632-3.162,1.9-1.264h2.53l3.161-3.162h2.53l.632-1.9-1.9-1.9v-3.795L702.1,196.8l-.632-3.162,3.162-3.162,4.427,3.162Z" fill="#dbeda9" stroke="#fff" stroke-linecap="round" stroke-linejoin="round" stroke-width="1" fill-rule="evenodd"/>
      <path id="Path_514" data-name="Path 514" d="M716.014,193.636h-7.588v-1.265l-3.162-.632v-1.265L702.735,193H701.47l-.632,9.485,1.9.632-.633,1.9-5.691,3.794h-2.53l-5.058,6.323v2.53l-2.53,3.162-.632-.632-1.265,1.264-7.588,1.9-5.692,5.692-1.264,5.059-3.162,3.161-2.529-3.161-12.647-1.265,1.9-4.426-6.958-6.956-.632.632-1.9-1.9-3.794-1.264,3.162-3.162-.633-.632,1.265-2.53,2.53-1.264-.633-4.427,3.794-4.426,1.9.632,2.529-1.265,2.53,1.265.632-1.9-1.9-2.53.632-4.426-1.9-1.9v-2.529l1.9-.632.632-2.53,1.9-.632v-2.53l2.53-1.264.632-1.9,6.323-3.161-2.529-2.53.632-.632-1.264-4.427-2.53-3.794,1.265-1.264.632-3.162-1.265-3.794,1.265-1.265,3.162.632,1.264-1.264v-2.53l.633.633.632-1.9,3.794-1.265-.632-3.794,1.264-.633,1.9,1.9v3.162l2.53,2.53v2.529h-1.265l-.632,2.53,1.265,5.059,1.264,1.264V171.5h7.589l3.161,4.426,1.9-2.529,1.265,3.794,3.162-.633,4.426,4.427h3.794l2.53-2.53.632-3.161.632.632,3.8-1.265,4.426,3.8.632,1.9v6.956l-1.9,5.691Z" fill="#ffe7a8" stroke="#fff" stroke-linecap="round" stroke-linejoin="round" stroke-width="1" fill-rule="evenodd"/>
      <path id="Path_515" data-name="Path 515" d="M559.819,210.077l3.794,3.795h1.265l-1.265,3.161,1.9,1.9v3.794l3.161,1.9h-1.264l-.633,3.162-1.9.632,1.9,1.9v1.264l-1.9,1.9,1.9.633-.632,1.9,1.9,1.9-.632.632,1.264,1.265,5.692,1.265v1.264l1.9-.632,1.265,1.264,3.161.633,2.53,2.529.632-.632,1.265,1.265,1.265-1.265v1.265l1.264-1.265,1.9,1.9v1.265l1.265-1.265,2.53,2.53-.633,1.9-1.9.632-1.265,2.53h-1.264l-1.9,1.9,1.264,3.794,6.324,3.794v5.059l2.529,1.265-.632.632,1.264,1.265-3.161.632.632,1.9h-1.264l1.264,1.265-1.264,1.265-3.162-.633v-2.528l-6.323-1.265-.633-1.9h-3.794l-1.264-1.265-6.324-1.9-3.794,1.265v-1.264l-1.9-1.9-6.956.633v-1.265l-3.794-1.264-.633-2.53L551.6,258.77v-1.264l-2.53-1.265-.632-4.426-4.426-.633-3.162,1.9h-2.53l-.632-1.9-2.529,1.265-2.53-1.265-3.162.633V250.55l-3.161-.632-.633-1.9-.632.632-1.9-1.9-1.9.632-1.265-2.529h-3.794v-1.265l-1.9-1.9-4.427.632-2.529-1.264-1.9,1.9h-5.693V241.7l3.162-3.161-.633.632v-1.9h1.265l-2.529-6.323.632-4.427h2.529l3.795-5.059V218.93l-2.53-2.53,2.53-3.162,1.264,1.265,1.9-.632,3.162-4.427.632,1.9h1.265l2.53-2.529,6.323,3.162,1.9-3.795,5.691,1.9,4.427-3.161h2.529l2.53,1.264.632-.632.632,1.9,5.692-3.162,5.691,5.692h1.9Z" fill="#e5f7ff" stroke="#fff" stroke-linecap="round" stroke-linejoin="round" stroke-width="1" fill-rule="evenodd"/>
      <path id="Path_516" data-name="Path 516" d="M499.744,191.739h-2.529l-3.162,1.9,3.162,1.264-.632,1.9,4.426.633-.632,1.9,1.264,1.265-1.264,2.529,1.9,1.9,8.221-1.9,4.426,3.794-1.264,3.8-3.795,3.794-1.9-.633-2.529,1.9.632,1.9h1.265l.632,3.161-.632,1.9-3.794,3.795-.633-.633-1.264,1.265-.633,3.161.633,3.162,1.264,1.265v3.794l-3.161,3.161v1.265h-2.53l-1.264-2.529-6.956-.633-1.265-1.264-1.9,5.059.632.632-1.9.632,1.264,1.265h-1.264l.632,1.9-1.265,1.265h-3.161l-1.9,1.9v1.265h-2.53l-3.162-1.9-5.059.633-1.264-1.265-3.162.632-6.323-2.529-.632.632-1.9-1.9v-2.529l-3.162-4.427h-2.53l-.632,1.9H447.26V237.9h-2.53L440.3,236v-4.426l-3.162.632-1.265-1.264-1.264,1.264-.633,3.162-3.794,2.529-.632,3.162-5.059,1.265-2.53-1.265-5.059.632-1.264-1.264,1.264-2.53-.632-3.161,1.9-.633,1.265-2.529-1.265-1.265-1.9,1.9h-1.265l-1.264-1.265.632-3.161,3.162.632,2.529-1.265,1.265,1.265,1.9-.632,1.264,1.264h2.53l1.265-2.529,1.9.632,1.264-1.264,5.059,1.264,1.265-3.161,6.956-6.956h1.265l1.9-1.9,3.794-1.264.632.632,10.75-6.956,3.162,2.53,6.323-2.53-.632-4.427,1.9-.632,1.265-2.529,2.529,1.264-1.9-3.161h-1.9l-1.265-1.265V193l2.53-1.265L482.671,193l1.265-2.53,1.9.632,1.265-1.264v-2.53h1.264l2.53-2.53,3.162.633V184.15l1.9,1.9v1.264l3.161.632Z" fill="#49ce8e" stroke="#fff" stroke-linecap="round" stroke-linejoin="round" stroke-width="1" fill-rule="evenodd"/>
    </g>
  </g>
</svg>
